<svg version="1.1" id="Layer_1" xmlns="http://www.w3.org/2000/svg" x="0px" y="0px" viewBox="0 0 15 15" style="enable-background:new 0 0 15 15" xml:space="preserve"><style>.st1{fill:#5F8BBB}.st3{fill:#437657}.st5{fill:#70B466}.st6{fill:none;stroke:#437657;stroke-width:0.2;stroke-miterlimit:41.0953}</style><g id="g3"><g id="g5"><g id="g7"><g id="g9"><g id="g11"><g id="g13"><path id="path15" d="M1.6,1.6c4.3,0,11.9,0,11.9,0c0.8,0,1.3,1,1,1.8c-1.9,3.3-3.8,6.4-5.8,9.7 c-0.2,0.3-0.5,0.5-0.9,0.5c-0.5,0.1-1.1-0.1-1.3-0.6c-2-3.3-3.8-6.5-5.7-9.7C0.5,2.7,0.8,1.8,1.6,1.6" style="fill:#90C1E9"/></g><path id="path17" class="st1" d="M12.7,6.1c-1.1-0.3-3.2-0.8-5.4,0.4c-1.6-0.9-3.5-1-5-0.5L2,5.4l5.5-1.1l5.6,1.1L12.7,6.1"/><path id="path19" d="M9.6,4.7C9.6,4.7,9.5,4.8,9.6,4.7C9.4,4.8,9.3,4.8,9.2,4.8c-0.1,0-0.3-0.1-0.4,0 c0,0-0.1,0-0.1,0.1c0,0.1,0,0.2,0,0.3c0,0,0,0,0,0.1C8.4,5.3,8.2,5.1,8,5c-0.1,0-0.2-0.1-0.3,0C7.5,5.1,7.5,5.3,7.3,5.5 C7.3,5.7,7.1,5.7,7,5.6S6.9,5.4,6.9,5.3c0-0.1,0-0.2,0-0.3C6.9,4.9,6.8,5,6.6,5C6.5,5.1,6.2,5.3,6.1,5.1c0-0.1,0.1-0.2,0.2-0.3 c0,0,0-0.1,0-0.1c-0.2,0-0.4,0.1-0.6,0c0,0,0,0,0-0.1l1.8-0.3L9.6,4.7L9.6,4.7" style="fill:#FFFFFF"/><path id="path21" class="st3" d="M1.6,2.4v0.3c0,0.1,0,0.1-0.1,0.2c0,0-0.1,0.1-0.2,0.1s-0.1,0-0.2-0.1 C1.1,2.8,1.1,2.7,1.1,2.7V2.4h0.1v0.3c0,0.1,0,0.1,0.1,0.1c0.1,0,0.1-0.1,0.1-0.1V2.4L1.6,2.4"/><path id="path23" class="st3" d="M1.8,2.8C1.8,2.9,1.8,2.9,1.8,2.8c-0.1,0.1-0.2,0-0.2,0C1.7,2.8,1.7,2.7,1.8,2.8 C1.8,2.7,1.8,2.8,1.8,2.8"/><path id="path25" class="st3" d="M2.2,2.5C2.2,2.5,2.1,2.5,2.2,2.5c-0.1,0-0.1,0-0.1,0C2.1,2.5,2.1,2.6,2.2,2.5L2.2,2.5 c0,0.1,0.1,0.1,0.1,0.2c0,0.1,0,0.1-0.1,0.1s-0.1,0-0.1,0c-0.1,0-0.1,0-0.2-0.1l0.1-0.1c0,0,0.1,0.1,0.1,0.1c0,0,0.1,0,0.1-0.1 S2.1,2.7,2.1,2.7c-0.1,0-0.1,0-0.1-0.1c0-0.1,0.1-0.2,0.2-0.2c0.1,0,0.1,0,0.2,0L2.2,2.5"/><path id="path27" class="st3" d="M2.5,2.8C2.5,2.9,2.5,2.9,2.5,2.8c-0.1,0.1-0.2,0-0.2,0C2.3,2.8,2.4,2.7,2.5,2.8 C2.5,2.7,2.5,2.8,2.5,2.8"/><path id="path29" class="st3" d="M3,2.8L3,2.8c0.1,0,0.2,0,0.2-0.1c0-0.1-0.1-0.1-0.1-0.1h0L3,2.8 M2.8,2.4H3 c0.1,0,0.3,0.1,0.3,0.3c0,0.1-0.1,0.3-0.3,0.3H2.8V2.4z"/><polyline id="polyline31" class="st3" points="3.5,2.5 3.5,2.6 3.6,2.6 3.6,2.7 3.5,2.7 3.5,2.8 3.6,2.8 3.6,2.9 3.3,2.9 3.3,2.4 3.6,2.4 3.6,2.5 3.5,2.5"/><path id="path33" class="st3" d="M3.9,2.6L3.9,2.6c0.1,0,0.1,0,0.1-0.1c0-0.1,0-0.1-0.1-0.1h0V2.6 M3.7,2.4h0.2 c0.1,0,0.2,0.1,0.2,0.2S4.1,2.7,3.9,2.7H3.9v0.2H3.7V2.4z"/><path id="path35" class="st3" d="M4.4,2.5L4.4,2.5L4.4,2.7h0.1L4.4,2.5 M4.3,2.8L4.3,2.8L4.2,2.9l0.2-0.5h0.1l0.2,0.5H4.6 l0-0.1H4.3L4.3,2.8z"/><path id="path37" class="st3" d="M4.9,2.6L4.9,2.6c0.1,0,0.1,0,0.1-0.1c0-0.1,0-0.1-0.1-0.1h0V2.6 M5.2,2.9H5L4.9,2.7l0,0v0.2 H4.7V2.4h0.2c0.1,0,0.2,0,0.2,0.2c0,0.1,0,0.1-0.1,0.1L5.2,2.9z"/><polyline id="polyline39" class="st3" points="5.4,2.9 5.3,2.9 5.3,2.5 5.2,2.5 5.2,2.4 5.5,2.4 5.5,2.5 5.4,2.5 5.4,2.9"/><polyline id="polyline41" class="st3" points="5.7,2.4 5.8,2.4 5.9,2.6 6,2.4 6.1,2.4 6.2,2.9 6.1,2.9 6,2.6 6,2.6 5.9,2.9 5.9,2.9 5.7,2.6 5.7,2.6 5.7,2.9 5.6,2.9 5.7,2.4"/><polyline id="polyline43" class="st3" points="6.4,2.5 6.4,2.6 6.6,2.6 6.6,2.7 6.4,2.7 6.4,2.8 6.6,2.8 6.6,2.9 6.3,2.9 6.3,2.4 6.6,2.4 6.6,2.5 6.4,2.5"/><polyline id="polyline45" class="st3" points="6.7,2.4 6.8,2.4 7.1,2.7 7.1,2.7 7.1,2.4 7.2,2.4 7.2,2.9 7.1,2.9 6.8,2.6 6.8,2.6 6.8,2.9 6.7,2.9 6.7,2.4"/><polyline id="polyline47" class="st3" points="7.5,2.9 7.4,2.9 7.4,2.5 7.2,2.5 7.2,2.4 7.6,2.4 7.6,2.5 7.5,2.5 7.5,2.9"/><path id="path49" class="st3" d="M8,2.6c0,0.1,0.1,0.2,0.1,0.2c0.1,0,0.1-0.1,0.1-0.2c0-0.1-0.1-0.1-0.1-0.1 C8.1,2.5,8,2.5,8,2.6 M8.5,2.6c0,0.2-0.1,0.3-0.3,0.3C8,2.9,7.9,2.8,7.9,2.6c0-0.2,0.1-0.3,0.3-0.3C8.3,2.4,8.5,2.5,8.5,2.6z"/><polyline id="polyline51" class="st3" points="8.7,2.5 8.7,2.6 8.8,2.6 8.8,2.7 8.7,2.7 8.7,2.9 8.5,2.9 8.5,2.4 8.8,2.4 8.8,2.5 8.7,2.5"/><polyline id="polyline53" class="st3" points="9.3,2.9 9.2,2.9 9.2,2.5 9.1,2.5 9.1,2.4 9.5,2.4 9.5,2.5 9.3,2.5 9.3,2.9"/><polyline id="polyline55" class="st3" points="9.8,2.6 9.8,2.4 10,2.4 10,2.9 9.8,2.9 9.8,2.7 9.7,2.7 9.7,2.9 9.5,2.9 9.5,2.4 9.7,2.4 9.7,2.6 9.8,2.6"/><polyline id="polyline57" class="st3" points="10.2,2.5 10.2,2.6 10.4,2.6 10.4,2.7 10.2,2.7 10.2,2.8 10.4,2.8 10.4,2.9 10.1,2.9 10.1,2.4 10.4,2.4 10.4,2.5 10.2,2.5"/><polyline id="polyline59" class="st3" points="10.8,2.9 10.7,2.9 10.7,2.4 10.8,2.4 10.8,2.9"/><polyline id="polyline61" class="st3" points="10.9,2.4 11.1,2.4 11.3,2.7 11.3,2.7 11.3,2.4 11.5,2.4 11.5,2.9 11.3,2.9 11.1,2.6 11.1,2.6 11.1,2.9 10.9,2.9 10.9,2.4"/><polyline id="polyline63" class="st3" points="11.8,2.9 11.6,2.9 11.6,2.5 11.5,2.5 11.5,2.4 11.9,2.4 11.9,2.5 11.8,2.5 11.8,2.9"/><polyline id="polyline65" class="st3" points="12.1,2.5 12.1,2.6 12.2,2.6 12.2,2.7 12.1,2.7 12.1,2.8 12.2,2.8 12.2,2.9 11.9,2.9 11.9,2.4 12.2,2.4 12.2,2.5 12.1,2.5"/><path id="path67" class="st3" d="M12.4,2.6L12.4,2.6c0.1,0,0.1,0,0.1-0.1c0-0.1-0.1-0.1-0.1-0.1h0V2.6 M12.7,2.9h-0.2l-0.1-0.2 l0,0v0.2h-0.1V2.4h0.2c0.1,0,0.2,0,0.2,0.2c0,0.1,0,0.1-0.1,0.1L12.7,2.9z"/><polyline id="polyline69" class="st3" points="12.9,2.9 12.8,2.9 12.8,2.4 12.9,2.4 12.9,2.9"/><path id="path71" class="st3" d="M13.1,2.6c0,0.1,0.1,0.2,0.1,0.2c0.1,0,0.1-0.1,0.1-0.2c0-0.1-0.1-0.1-0.1-0.1 C13.2,2.5,13.1,2.5,13.1,2.6 M13.6,2.6c0,0.2-0.1,0.3-0.3,0.3c-0.2,0-0.3-0.1-0.3-0.3c0-0.2,0.1-0.3,0.3-0.3 C13.4,2.4,13.6,2.5,13.6,2.6z"/><path id="path73" class="st3" d="M13.8,2.6L13.8,2.6c0.1,0,0.1,0,0.1-0.1c0-0.1-0.1-0.1-0.1-0.1h0L13.8,2.6 M14.1,2.9h-0.2 l-0.1-0.2l0,0v0.2h-0.1V2.4h0.2c0.1,0,0.2,0,0.2,0.2c0,0.1,0,0.1-0.1,0.1L14.1,2.9z"/><path id="path75" class="st3" d="M2.3,3.4L2.3,3.4C2.4,3.4,2.4,3.4,2.3,3.4C2.4,3.3,2.4,3.3,2.3,3.4L2.3,3.4L2.3,3.4 M2.3,3.6 L2.3,3.6c0.1,0,0.1,0,0.1,0C2.5,3.4,2.4,3.5,2.3,3.6L2.3,3.6C2.3,3.5,2.3,3.6,2.3,3.6z M2.2,3.7V3.2h0.2c0.1,0,0.1,0,0.1,0.1 c0,0,0,0.1-0.1,0.1l0,0c0.1,0,0.1,0.1,0.1,0.1c0,0.1-0.1,0.1-0.2,0.1L2.2,3.7L2.2,3.7z"/><path id="path77" class="st3" d="M3,3.2v0.3c0,0.1,0,0.1,0,0.2c0,0-0.1,0.1-0.2,0.1s-0.1,0-0.2-0.1c0,0,0-0.1,0-0.2V3.2h0.1 v0.2c0,0.1,0,0.1,0.1,0.1s0.1-0.1,0.1-0.1V3.2H3"/><path id="path79" class="st3" d="M3.2,3.4L3.2,3.4C3.3,3.4,3.3,3.4,3.2,3.4c0.1-0.1,0.1-0.1,0-0.1h0V3.4 M3.5,3.7H3.4L3.2,3.5 l0,0v0.2H3.1V3.2h0.2c0.1,0,0.2,0,0.2,0.1c0,0.1,0,0.1-0.1,0.1L3.5,3.7z"/><polyline id="polyline81" class="st3" points="3.7,3.3 3.7,3.4 3.8,3.4 3.8,3.5 3.7,3.5 3.7,3.5 3.8,3.5 3.8,3.7 3.5,3.7 3.5,3.2 3.8,3.2 3.8,3.3 3.7,3.3"/><path id="path83" class="st3" d="M4.1,3.3L4.1,3.3L4,3.5h0.1L4.1,3.3 M4,3.6L4,3.6L3.8,3.7L4,3.2h0.1l0.2,0.5H4.2l0-0.1H4z"/><path id="path85" class="st3" d="M4.8,3.2v0.3c0,0.1,0,0.1,0,0.2c0,0-0.1,0.1-0.2,0.1c-0.1,0-0.1,0-0.2-0.1c0,0,0-0.1,0-0.2 V3.2h0.1v0.2c0,0.1,0,0.1,0.1,0.1s0.1-0.1,0.1-0.1V3.2H4.8"/><path id="path87" class="st3" d="M5.2,3.4c0,0.1,0.1,0.1,0.1,0.1s0.1-0.1,0.1-0.1c0-0.1-0.1-0.1-0.1-0.1 C5.2,3.3,5.2,3.3,5.2,3.4 M5.6,3.4c0,0.2-0.1,0.3-0.3,0.3C5.2,3.7,5,3.6,5,3.4c0-0.1,0.1-0.2,0.3-0.2C5.4,3.2,5.6,3.3,5.6,3.4z"/><polyline id="polyline89" class="st3" points="5.7,3.3 5.7,3.4 5.9,3.4 5.9,3.5 5.7,3.5 5.7,3.7 5.6,3.7 5.6,3.2 5.9,3.2 5.9,3.3 5.7,3.3"/><polyline id="polyline91" class="st3" points="6.3,3.5 6.4,3.5 6.4,3.7 6.2,3.7 6.2,3.2 6.3,3.2 6.3,3.5"/><path id="path93" class="st3" d="M6.7,3.3L6.7,3.3L6.6,3.5h0.1L6.7,3.3 M6.6,3.6L6.6,3.6L6.4,3.7l0.2-0.5h0.1l0.2,0.5H6.8 l0-0.1H6.6z"/><polyline id="polyline95" class="st3" points="7,3.2 7.1,3.2 7.3,3.5 7.3,3.5 7.3,3.2 7.4,3.2 7.4,3.7 7.3,3.7 7.1,3.4 7.1,3.4 7.1,3.7 7,3.7 7,3.2"/><path id="path97" class="st3" d="M7.6,3.5L7.6,3.5c0.1,0,0.2,0,0.2-0.1c0-0.1-0.1-0.1-0.1-0.1h0V3.5 M7.5,3.2h0.2 c0.1,0,0.2,0.1,0.2,0.2S7.8,3.7,7.7,3.7H7.5V3.2z"/><polyline id="polyline99" class="st3" points="8.2,3.2 8.4,3.2 8.4,3.4 8.5,3.2 8.7,3.2 8.7,3.7 8.6,3.7 8.6,3.4 8.6,3.4 8.5,3.7 8.4,3.7 8.3,3.4 8.3,3.4 8.3,3.7 8.2,3.7 8.2,3.2"/><path id="path101" class="st3" d="M9,3.3L9,3.3L8.9,3.5H9L9,3.3 M8.9,3.6L8.9,3.6L8.8,3.7l0.2-0.5h0.1l0.2,0.5H9.1l0-0.1H8.9z"/><polyline id="polyline103" class="st3" points="9.3,3.2 9.4,3.2 9.6,3.5 9.6,3.5 9.6,3.2 9.7,3.2 9.7,3.7 9.6,3.7 9.4,3.4 9.4,3.4 9.4,3.7 9.3,3.7 9.3,3.2"/><path id="path105" class="st3" d="M10,3.3L10,3.3L10,3.5h0.1L10,3.3 M9.9,3.6L9.9,3.6L9.8,3.7L10,3.2h0.1l0.2,0.5h-0.1l0-0.1 H9.9z"/><path id="path107" class="st3" d="M10.8,3.4c0,0.1,0,0.1,0,0.2c0,0.1-0.1,0.1-0.2,0.1c-0.1,0-0.2-0.1-0.2-0.2 c0-0.2,0.1-0.2,0.3-0.2C10.6,3.2,10.7,3.2,10.8,3.4l-0.1,0c0,0-0.1-0.1-0.1-0.1c-0.1,0-0.1,0.1-0.1,0.1s0,0.1,0.1,0.1 c0.1,0,0.1,0,0.1-0.1h-0.1V3.4L10.8,3.4"/><polyline id="polyline109" class="st3" points="10.9,3.3 10.9,3.4 11.1,3.4 11.1,3.5 10.9,3.5 10.9,3.5 11.1,3.5 11.1,3.7 10.8,3.7 10.8,3.2 11.1,3.2 11.1,3.3 10.9,3.3"/><polyline id="polyline111" class="st3" points="11.2,3.2 11.3,3.2 11.4,3.4 11.5,3.2 11.7,3.2 11.7,3.7 11.6,3.7 11.6,3.4 11.6,3.4 11.5,3.7 11.4,3.7 11.3,3.4 11.3,3.4 11.3,3.7 11.1,3.7 11.2,3.2"/><polyline id="polyline113" class="st3" points="11.9,3.3 11.9,3.4 12,3.4 12,3.5 11.9,3.5 11.9,3.5 12,3.5 12,3.7 11.8,3.7 11.8,3.2 12,3.2 12,3.3 11.9,3.3"/><polyline id="polyline115" class="st3" points="12.1,3.2 12.2,3.2 12.5,3.5 12.5,3.5 12.5,3.2 12.6,3.2 12.6,3.7 12.5,3.7 12.2,3.4 12.2,3.4 12.2,3.7 12.1,3.7 12.1,3.2"/><polyline id="polyline117" class="st3" points="12.9,3.7 12.7,3.7 12.7,3.3 12.6,3.3 12.6,3.2 13,3.2 13,3.3 12.9,3.3 12.9,3.7"/><path id="path119" d="M8.7,13.2c-0.2,0.3-0.5,0.5-0.9,0.5c-0.5,0.1-1.1-0.1-1.3-0.6c-1.2-2-2.8-4.6-3.9-6.5l10,0 C11.5,8.5,9.9,11.2,8.7,13.2" style="fill:#ACCE64"/><path id="path121" class="st1" d="M4.9,10.7c0.9,0,1.2-0.1,1.5-0.2c0.3-0.1,0.4-0.2-0.1-0.4C5.8,9.9,4.3,9.6,5.8,9 C6,8.9,6.1,8.8,6.3,8.8c0,0,0-0.1-0.2-0.2C5.8,8.5,5.4,8.2,4.9,8.1c0,0-0.1-0.1-0.3-0.1C4.4,8,4.5,8,4.2,7.9 C4,7.9,3.9,7.7,4.4,7.5c0.4-0.2,1.1-0.4,1.9-0.4L6.1,7.3c0,0,0,0-0.3,0C5.5,7.4,4.9,7.6,4.8,7.7c0,0,0,0.1,0.1,0.1 C5,7.8,6.3,8,7.2,8.5C7.7,8.7,7.9,8.8,7,9C6.7,9.1,6.3,9.4,6.4,9.4c0.1,0.1,0.9,0.2,1.2,0.4c0.3,0.2,1,0.4-0.3,1.5 c0,0-1.1,0.6-1.6,0.7L4.9,10.7"/><path id="path123" class="st5" d="M12,7.4H6c1.3-1.2,3.6-2.3,6.7-1.3L12,7.4"/><path id="path125" class="st6" d="M12,7.4H6c1.3-1.2,3.6-2.3,6.7-1.3L12,7.4z"/><path id="path127" class="st5" d="M7.2,6.3C6.4,6,5.8,5.7,4.2,5.6c-0.9,0-1.6,0.2-1.9,0.3L3,7h3.4c0.2-0.2,0.8-0.5,0.9-0.6 L7.2,6.3"/><path id="path129" class="st6" d="M7.2,6.3C6.4,6,5.8,5.7,4.2,5.6c-0.9,0-1.6,0.2-1.9,0.3L3,7h3.4c0.2-0.2,0.8-0.5,0.9-0.6 L7.2,6.3z"/><path id="path131" class="st3" d="M9.1,12.7l2.3-3.8c0,0-0.5-0.2-0.5-1.1c0,0,0.5,0.3,0.7-0.1c0,0-0.5,0.1-0.6-0.4 c-0.2-0.5-0.3-0.9-0.2-1.2c0,0,0.3,0.4,0.7,0.1c0,0-0.6-0.2-0.7-0.7c-0.1-0.5-0.2-0.6-0.2-0.8c0,0,0.1,0,0.2,0.1 c0,0,0.1,0-0.2-0.3c0,0-0.1-0.1,0-0.3c0-0.1,0-0.2,0-0.2l0,0c-0.1,0.1,0,0.2-0.1,0.3c0,0-0.2,0.2-0.2,0.4c0,0,0.1,0,0.1-0.1 c0.1-0.1,0.1,0,0.1,0.1c0,0.1-0.1,0.4-0.1,0.5c0,0.1-0.3,0.3-0.4,0.4c0,0,0.2,0.2,0.5,0c0,0-0.2,0.8-0.6,1C9.2,6.7,9,6.6,9,6.6 s0.1,0.2,0.5,0.1c0,0,0,0.1-0.1,0.2c0,0,0.4-0.1,0.5-0.2c0,0,0,0.7-0.7,1.1C8.6,8.2,8.4,8.2,8.4,8.2S9,8.7,9.8,8 c0,0,0,0.8-0.8,1.2S8,9.4,7.9,9.4c0,0,0.1,0.4,0.6,0.4L8.4,9.9c0,0,0.5,0.1,1.1-0.3c0,0-0.1,1.3-0.8,1.8C8,11.9,7.5,12,7.5,12 c0,0,0.4,0.5,1.2,0.1C8.9,12,9,12,9,12s-0.3,1-0.6,1.4L9.1,12.7"/><g id="g133"><path id="path135" d="M1.6,1.6c4.3,0,11.9,0,11.9,0c0.8,0,1.3,1,1,1.8c-1.9,3.3-3.8,6.4-5.8,9.7 c-0.2,0.3-0.5,0.5-0.9,0.5c-0.5,0.1-1.1-0.1-1.3-0.6c-2-3.3-3.8-6.5-5.7-9.7C0.5,2.7,0.8,1.8,1.6,1.6z" style="fill:none;stroke:#437657;stroke-width:0.6;stroke-miterlimit:41.0953"/></g></g></g></g></g></g></svg>